<!DOCTYPE svg PUBLIC "-//W3C//DTD SVG 1.1//EN" "http://www.w3.org/Graphics/SVG/1.1/DTD/svg11.dtd">
<!-- Uploaded to: SVG Repo, www.svgrepo.com, Transformed by: SVG Repo Mixer Tools -->
<svg fill="#000000" width="256px" height="256px" viewBox="0 0 32 32" style="fill-rule:evenodd;clip-rule:evenodd;stroke-linejoin:round;stroke-miterlimit:2;" version="1.1" xml:space="preserve" xmlns="http://www.w3.org/2000/svg" xmlns:serif="http://www.serif.com/" xmlns:xlink="http://www.w3.org/1999/xlink">
<g id="SVGRepo_bgCarrier" stroke-width="0"/>
<g id="SVGRepo_tracerCarrier" stroke-linecap="round" stroke-linejoin="round"/>
<g id="SVGRepo_iconCarrier">
<path d="M24,19.171c-1.165,0.412 -2,1.524 -2,2.829c-0,1.305 0.835,2.417 2,2.829l-0,2.171c0,0.552 0.448,1 1,1c0.552,-0 1,-0.448 1,-1l-0,-2.171c1.165,-0.412 2,-1.524 2,-2.829c-0,-1.305 -0.835,-2.417 -2,-2.829l-0,-14.183c0,-0.552 -0.448,-1 -1,-1c-0.552,-0 -1,0.448 -1,1l-0,14.183Z"/>
<path d="M15.006,7.159c-1.164,0.412 -2,1.523 -2,2.829c0,1.305 0.836,2.417 2,2.829l0,14.183c0,0.552 0.448,1 1,1c0.552,0 1,-0.448 1,-1l0,-14.183c1.165,-0.412 2,-1.524 2,-2.829c0,-1.306 -0.835,-2.417 -2,-2.829l0,-2.171c0,-0.552 -0.448,-1 -1,-1c-0.552,-0 -1,0.448 -1,1l0,2.171Z"/>
<path d="M6,19.176c-1.157,0.416 -1.986,1.524 -1.986,2.824c-0,1.3 0.829,2.408 1.986,2.824l0,2.176c-0,0.552 0.448,1 1,1c0.552,0 1,-0.448 1,-1l0,-2.166c1.172,-0.408 2.014,-1.524 2.014,-2.834c-0,-1.31 -0.842,-2.426 -2.014,-2.834l0,-14.178c-0,-0.552 -0.448,-1 -1,-1c-0.552,-0 -1,0.448 -1,1l0,14.188Z"/>
</g>
</svg>