<!DOCTYPE svg PUBLIC "-//W3C//DTD SVG 1.1//EN" "http://www.w3.org/Graphics/SVG/1.1/DTD/svg11.dtd">
<!-- Uploaded to: SVG Repo, www.svgrepo.com, Transformed by: SVG Repo Mixer Tools -->
<svg fill="#eca31b" height="256px" width="256px" version="1.1" id="Layer_1" xmlns="http://www.w3.org/2000/svg" xmlns:xlink="http://www.w3.org/1999/xlink" viewBox="0 0 512.001 512.001" xml:space="preserve">
<g id="SVGRepo_bgCarrier" stroke-width="0"/>
<g id="SVGRepo_tracerCarrier" stroke-linecap="round" stroke-linejoin="round"/>
<g id="SVGRepo_iconCarrier"> <g> <g> <path d="M508.459,446.276l-38.477-33.347c-4.283-3.712-10.763-3.248-14.474,1.033c-3.711,4.283-3.248,10.762,1.034,14.474 l17.691,15.332h-42.779v-43.607h31.808c5.667,0,10.261-4.595,10.261-10.261c0-5.666-4.594-10.26-10.261-10.26h-31.808v-53.868 c0-5.666-4.594-10.26-10.26-10.26H344.24c-4.476,0-8.271,2.871-9.674,6.866l-26.238-28.534V201.62 c0-5.666-4.594-10.261-10.261-10.261h-76.954c-2.886,0-5.49,1.196-7.355,3.115l-28.557-29.194V84.65 c0-5.666-4.594-10.26-10.26-10.26H97.988c-5.667,0-10.26,4.595-10.26,10.26v276.36l-28.729-10.585V50.079L74.33,67.77 c2.029,2.341,4.885,3.541,7.758,3.541c2.381,0,4.774-0.825,6.716-2.507c4.282-3.711,4.745-10.192,1.033-14.472L56.49,15.855 c-0.065-0.075-0.124-0.136-0.186-0.203c-1.073-1.175-2.424-2.111-3.981-2.691c-4.013-1.497-8.534-0.343-11.34,2.892L7.637,54.33 c-3.711,4.283-3.248,10.763,1.034,14.474c4.283,3.711,10.762,3.248,14.474-1.033L38.477,50.08v393.688H10.26 c-5.667,0-10.26,4.595-10.26,10.261c0,5.666,4.594,10.26,10.26,10.26h28.216v25.138c0,5.666,4.594,10.26,10.261,10.26 s10.26-4.595,10.26-10.26v-25.138h415.236l-17.691,15.332c-4.282,3.711-4.745,10.192-1.033,14.472 c2.029,2.341,4.885,3.541,7.758,3.541c2.382,0,4.774-0.825,6.716-2.507l38.477-33.347c0.069-0.06,0.127-0.118,0.191-0.176 c1.18-1.075,2.12-2.429,2.703-3.991C512.851,453.602,511.696,449.081,508.459,446.276z M87.727,443.768H58.998v-71.473 l28.729,10.585V443.768z M164.681,443.768h-56.433V390.44l24.669,9.089c1.592,0.587,3.305,0.768,4.987,0.531l26.777-3.793V443.768 z M164.681,375.54l-27.096,3.838l-29.337-10.808V258.053h56.433V375.54z M164.681,144.301l-22.21-22.706 c-3.963-4.052-10.46-4.124-14.509-0.16c-4.051,3.962-4.123,10.459-0.16,14.509l36.879,37.702v63.884h-56.433V94.91h56.433V144.301 z M210.854,443.768h-25.651v-50.409l25.651-3.634V443.768z M210.854,368.999l-25.651,3.634V194.626l25.651,26.223V368.999z M287.808,443.768h-56.433v-56.95l26.917-3.814l29.515,11.985V443.768z M287.808,372.84l-24.356-9.89 c-1.679-0.68-3.506-0.905-5.3-0.653l-26.777,3.793v-30.058h56.433V372.84z M287.808,315.512h-56.433v-73.684l20.77,21.234 l35.662,38.783V315.512z M287.808,271.528l-20.664-22.472c-0.071-0.078-0.144-0.154-0.218-0.23l-35.552-36.344v-0.602h56.433 V271.528z M333.98,443.768h-25.651v-40.446l25.651,10.415V443.768z M333.98,391.589l-25.651-10.415v-57.013l25.651,27.895V391.589 z M410.934,443.767h-56.433v-37.032c0-0.025,0-0.05,0-0.075v-32.287l20.664,22.472c1.943,2.114,4.682,3.315,7.553,3.315h28.216 V443.767z M410.934,379.64h-23.712l-32.721-35.583v-8.024h56.433V379.64z"/> </g> </g> </g>
</svg>