<!DOCTYPE svg PUBLIC "-//W3C//DTD SVG 1.1//EN" "http://www.w3.org/Graphics/SVG/1.1/DTD/svg11.dtd">
<!-- Uploaded to: SVG Repo, www.svgrepo.com, Transformed by: SVG Repo Mixer Tools -->
<svg width="256px" height="256px" viewBox="0 0 36 36" xmlns="http://www.w3.org/2000/svg" xmlns:xlink="http://www.w3.org/1999/xlink" aria-hidden="true" role="img" class="iconify iconify--twemoji" preserveAspectRatio="xMidYMid meet" fill="#000000">
<g id="SVGRepo_bgCarrier" stroke-width="0"/>
<g id="SVGRepo_tracerCarrier" stroke-linecap="round" stroke-linejoin="round"/>
<g id="SVGRepo_iconCarrier">
<path fill="#C60A1D" d="M36 27a4 4 0 0 1-4 4H4a4 4 0 0 1-4-4V9a4 4 0 0 1 4-4h28a4 4 0 0 1 4 4v18z"/>
<path fill="#FFC400" d="M0 12h36v12H0z"/>
<path fill="#EA596E" d="M9 17v3a3 3 0 1 0 6 0v-3H9z"/>
<path fill="#F4A2B2" d="M12 16h3v3h-3z"/>
<path fill="#DD2E44" d="M9 16h3v3H9z"/>
<ellipse fill="#EA596E" cx="12" cy="14.5" rx="3" ry="1.5"/>
<ellipse fill="#FFAC33" cx="12" cy="13.75" rx="3" ry=".75"/>
<path fill="#99AAB5" d="M7 16h1v7H7zm9 0h1v7h-1z"/>
<path fill="#66757F" d="M6 22h3v1H6zm9 0h3v1h-3zm-8-7h1v1H7zm9 0h1v1h-1z"/>
</g>
</svg>