<!DOCTYPE svg PUBLIC "-//W3C//DTD SVG 1.1//EN" "http://www.w3.org/Graphics/SVG/1.1/DTD/svg11.dtd">
<!-- Uploaded to: SVG Repo, www.svgrepo.com, Transformed by: SVG Repo Mixer Tools -->
<svg width="256px" height="256px" viewBox="0 0 64 64" xmlns="http://www.w3.org/2000/svg" xmlns:xlink="http://www.w3.org/1999/xlink" aria-hidden="true" role="img" class="iconify iconify--medical-icon" preserveAspectRatio="xMidYMid meet" fill="#eca31b">
<g id="SVGRepo_bgCarrier" stroke-width="0"/>
<g id="SVGRepo_tracerCarrier" stroke-linecap="round" stroke-linejoin="round"/>
<g id="SVGRepo_iconCarrier">
<path d="M55.104 54.644a7.599 7.599 0 0 0 1.267-7.436l-.868-2.398h5.268V.396H3.63V44.81h30.728l3.352 9.195a7.599 7.599 0 0 0 5.751 4.876l1.575 4.767l13.185.002l-3.117-9.007zm-4.793-23.996a5.433 5.433 0 0 0-3.244 6.963l2.032 5.544H5.283V2.052h53.836v41.104H54.89l-4.58-12.507z" fill="#eca31b"/>
<path d="M34.66 25.794v3.17h9.263c.387 0 .952.346.952.952c0 5.397-.678 7.948-3.522 7.948c-2.955 0-3.561-6.399-6.692-6.817v6.117h-4.953v-6.125c-3.288.247-3.817 6.825-6.887 6.825c-2.844 0-3.369-2.551-3.369-7.948c0-.606.564-.952.954-.952h9.302v-3.17h-9.633a1.004 1.004 0 0 1-1.006-1.002c0-.553.451-1 1.006-1h9.633V20.62H18.866a1.003 1.003 0 0 1 0-2.006h10.842v-3.17H19.531a1.004 1.004 0 0 1 0-2.008h10.177v-3.17h-7.97a1.004 1.004 0 1 1 0-2.008h7.97V6.506h4.953v1.752h7.97a1.004 1.004 0 0 1 0 2.008h-7.97v3.17h10.206a1.004 1.004 0 1 1 0 2.008H34.661v3.17h10.873a1.004 1.004 0 0 1 0 2.006H34.661v3.172h9.633a1 1 0 1 1 0 2.002h-9.633z" fill="#eca31b"/>
</g>
</svg>