<!DOCTYPE svg PUBLIC "-//W3C//DTD SVG 1.1//EN" "http://www.w3.org/Graphics/SVG/1.1/DTD/svg11.dtd">
<!-- Uploaded to: SVG Repo, www.svgrepo.com, Transformed by: SVG Repo Mixer Tools -->
<svg fill="#7da3fd" height="256px" width="256px" version="1.1" id="Layer_1" xmlns="http://www.w3.org/2000/svg" xmlns:xlink="http://www.w3.org/1999/xlink" viewBox="0 0 512 512" xml:space="preserve">
<g id="SVGRepo_bgCarrier" stroke-width="0"/>
<g id="SVGRepo_tracerCarrier" stroke-linecap="round" stroke-linejoin="round"/>
<g id="SVGRepo_iconCarrier"> <g> <g> <path d="M510.366,444.46l-31.047-41.396V187.915c0-22.526-18.325-40.851-40.851-40.851h-78.979c-4.513,0-8.17,3.657-8.17,8.17 s3.657,8.17,8.17,8.17h78.979c13.515,0,24.511,10.996,24.511,24.511v209.702H40.851c-2.571,0-4.994,1.21-6.536,3.268L1.634,444.46 C0.573,445.874,0,447.594,0,449.362v21.787C0,493.675,18.325,512,40.851,512h430.298C493.675,512,512,493.675,512,471.149v-21.787 C512,447.594,511.427,445.874,510.366,444.46z M44.936,413.957h422.128l20.426,27.234H24.511L44.936,413.957z M495.66,471.149 c0,13.515-10.996,24.511-24.511,24.511H40.851c-13.515,0-24.511-10.996-24.511-24.511v-13.617H247.83v13.617 c0,4.513,3.657,8.17,8.17,8.17c4.513,0,8.17-3.657,8.17-8.17v-13.617H495.66V471.149z"/> </g> </g> <g> <g> <path d="M152.511,147.064H73.532c-22.526,0-40.851,18.325-40.851,40.851v185.191c0,4.513,3.657,8.17,8.17,8.17 s8.17-3.657,8.17-8.17V187.915c0-13.515,10.996-24.511,24.511-24.511h78.979c4.513,0,8.17-3.657,8.17-8.17 S157.024,147.064,152.511,147.064z"/> </g> </g> <g> <g> <path d="M377.931,184.788c-1.264-3.053-4.244-5.044-7.548-5.044h-35.404V8.17c0-4.513-3.657-8.17-8.17-8.17H185.192 c-4.513,0-8.17,3.657-8.17,8.17v171.574h-35.404c-3.304,0-6.284,1.99-7.548,5.044c-1.265,3.053-0.566,6.567,1.77,8.904 l114.383,114.383c1.596,1.595,3.687,2.392,5.778,2.392c2.091,0,4.182-0.797,5.778-2.392l114.383-114.383 C378.498,191.355,379.196,187.842,377.931,184.788z M256,290.744l-94.659-94.659h23.851c4.513,0,8.17-3.657,8.17-8.17V16.34 h125.277v171.574c0,4.513,3.657,8.17,8.17,8.17h23.85L256,290.744z"/> </g> </g> <g> <g> <circle cx="256" cy="98.043" r="8.17"/> </g> </g> <g> <g> <circle cx="217.872" cy="98.043" r="8.17"/> </g> </g> <g> <g> <circle cx="294.128" cy="98.043" r="8.17"/> </g> </g> </g>
</svg>