<!DOCTYPE svg PUBLIC "-//W3C//DTD SVG 1.1//EN" "http://www.w3.org/Graphics/SVG/1.1/DTD/svg11.dtd">
<!-- Uploaded to: SVG Repo, www.svgrepo.com, Transformed by: SVG Repo Mixer Tools -->
<svg height="256px" width="256px" version="1.1" id="Capa_1" xmlns="http://www.w3.org/2000/svg" xmlns:xlink="http://www.w3.org/1999/xlink" viewBox="0 0 23.67 23.67" xml:space="preserve" fill="#83a4fc" stroke="#83a4fc" stroke-width="0.18936000000000003">
<g id="SVGRepo_bgCarrier" stroke-width="0"/>
<g id="SVGRepo_tracerCarrier" stroke-linecap="round" stroke-linejoin="round"/>
<g id="SVGRepo_iconCarrier"> <g> <path style="fill:#83a4fc;" d="M21.756,16.552v-5.025c0.598-0.159,1.041-0.698,1.041-1.346c0-0.772-0.626-1.398-1.398-1.398 c-0.315,0-0.604,0.109-0.838,0.286l-4.023-3.162c0.075-0.17,0.117-0.358,0.117-0.557c0-0.773-0.627-1.399-1.399-1.399 c-0.451,0-0.848,0.217-1.104,0.548c-0.987-0.361-2.438-0.77-4-0.77c-0.857,0-1.644,0.131-2.362,0.378l2.45-2.445 c0.134,0.08,0.282,0.138,0.449,0.138c0.497,0,0.9-0.403,0.9-0.9S11.186,0,10.689,0s-0.9,0.403-0.9,0.9 c0,0.167,0.058,0.315,0.138,0.449L7.05,4.219C6.82,4.052,6.538,3.95,6.231,3.95c-0.773,0-1.399,0.626-1.399,1.399 c0,0.306,0.1,0.586,0.267,0.817l-2.807,2.8C2.144,8.858,1.97,8.781,1.772,8.781c-0.497,0-0.9,0.403-0.9,0.9s0.403,0.9,0.9,0.9 s0.9-0.403,0.9-0.9c0-0.137-0.036-0.263-0.09-0.379l2.554-2.548C4.538,10.739,9.428,18.8,11.233,21.608 c-0.108,0.199-0.175,0.423-0.175,0.665c0,0.771,0.626,1.397,1.398,1.397s1.398-0.626,1.398-1.397c0-0.143-0.027-0.277-0.067-0.407 l6.545-3.073c0.257,0.306,0.637,0.504,1.066,0.504c0.772,0,1.398-0.626,1.398-1.398C22.797,17.25,22.354,16.71,21.756,16.552z M21.045,16.551C20.445,16.708,20,17.249,20,17.898c0,0.088,0.011,0.173,0.025,0.256l-6.61,3.105 c-0.251-0.237-0.586-0.385-0.958-0.385c-0.264,0-0.509,0.077-0.72,0.205C9.285,17.229,5.17,9.827,5.856,6.69 C5.976,6.724,6.1,6.748,6.231,6.748c0.773,0,1.399-0.626,1.399-1.399c0-0.133-0.024-0.26-0.06-0.382 c0.761-0.341,1.617-0.53,2.582-0.53c1.43,0,2.79,0.38,3.723,0.717c-0.009,0.064-0.02,0.128-0.02,0.195 c0,0.772,0.627,1.399,1.399,1.399c0.317,0,0.606-0.109,0.841-0.288l4.021,3.162c-0.074,0.171-0.117,0.359-0.117,0.558 c0,0.649,0.445,1.19,1.045,1.347v5.024H21.045z"/> </g> </g>
</svg>