<!DOCTYPE svg PUBLIC "-//W3C//DTD SVG 1.1//EN" "http://www.w3.org/Graphics/SVG/1.1/DTD/svg11.dtd">
<!-- Uploaded to: SVG Repo, www.svgrepo.com, Transformed by: SVG Repo Mixer Tools -->
<svg width="256px" height="256px" viewBox="0 0 48 48" xmlns="http://www.w3.org/2000/svg" fill="#000000">
<g id="SVGRepo_bgCarrier" stroke-width="0"/>
<g id="SVGRepo_tracerCarrier" stroke-linecap="round" stroke-linejoin="round"/>
<g id="SVGRepo_iconCarrier"> <title>pipeline-solid</title> <g id="Layer_2" data-name="Layer 2"> <g id="invisible_box" data-name="invisible box"> <rect width="48" height="48" fill="none"/> </g> <g id="icons_Q2" data-name="icons Q2"> <path d="M40,30a2,2,0,0,0-2,2v1H22a2,2,0,0,1,0-4h4A12,12,0,0,0,26,5H10V4A2,2,0,0,0,6,4V16a2,2,0,0,0,4,0V15H26a2,2,0,0,1,0,4H22a12,12,0,0,0,0,24H38v1a2,2,0,0,0,4,0V32A2,2,0,0,0,40,30Z"/> </g> </g> </g>
</svg>