<!DOCTYPE svg PUBLIC "-//W3C//DTD SVG 1.1//EN" "http://www.w3.org/Graphics/SVG/1.1/DTD/svg11.dtd">
<!-- Uploaded to: SVG Repo, www.svgrepo.com, Transformed by: SVG Repo Mixer Tools -->
<svg fill="#81a7ff" width="256px" height="256px" viewBox="0 0 60 60" id="Capa_1" version="1.1" xml:space="preserve" xmlns="http://www.w3.org/2000/svg" xmlns:xlink="http://www.w3.org/1999/xlink">
<g id="SVGRepo_bgCarrier" stroke-width="0"/>
<g id="SVGRepo_tracerCarrier" stroke-linecap="round" stroke-linejoin="round"/>
<g id="SVGRepo_iconCarrier"> <g> <path d="M60,4H31V1c0-0.553-0.447-1-1-1s-1,0.447-1,1v3H0v42h27.586L15.293,58.293c-0.391,0.391-0.391,1.023,0,1.414 C15.488,59.902,15.744,60,16,60s0.512-0.098,0.707-0.293L29,47.414V57c0,0.553,0.447,1,1,1s1-0.447,1-1v-9.586l12.293,12.293 C43.488,59.902,43.744,60,44,60s0.512-0.098,0.707-0.293c0.391-0.391,0.391-1.023,0-1.414L32.414,46H60V4z M58,44H2V6h56V44z"/> <path d="M36,42c0.553,0,1-0.447,1-1v-3c0-0.553-0.447-1-1-1s-1,0.447-1,1v3C35,41.553,35.447,42,36,42z"/> <path d="M40,33c-0.553,0-1,0.447-1,1v7c0,0.553,0.447,1,1,1s1-0.447,1-1v-7C41,33.447,40.553,33,40,33z"/> <path d="M44,35c-0.553,0-1,0.447-1,1v5c0,0.553,0.447,1,1,1s1-0.447,1-1v-5C45,35.447,44.553,35,44,35z"/> <path d="M48,28c-0.553,0-1,0.447-1,1v12c0,0.553,0.447,1,1,1s1-0.447,1-1V29C49,28.447,48.553,28,48,28z"/> <path d="M52,32c-0.553,0-1,0.447-1,1v8c0,0.553,0.447,1,1,1s1-0.447,1-1v-8C53,32.447,52.553,32,52,32z"/> <path d="M8,38h10c0.553,0,1-0.447,1-1s-0.447-1-1-1H8c-0.553,0-1,0.447-1,1S7.447,38,8,38z"/> <path d="M23,40H8c-0.553,0-1,0.447-1,1s0.447,1,1,1h15c0.553,0,1-0.447,1-1S23.553,40,23,40z"/> <path d="M29.955,18.607c-0.018-0.239-0.047-0.474-0.08-0.708c-0.02-0.142-0.04-0.284-0.065-0.425 c-0.047-0.263-0.106-0.521-0.17-0.778c-0.029-0.115-0.056-0.231-0.089-0.345c-0.076-0.265-0.164-0.525-0.258-0.782 c-0.04-0.11-0.078-0.221-0.121-0.33c-0.096-0.241-0.205-0.475-0.317-0.707c-0.06-0.124-0.116-0.25-0.18-0.372 c-0.103-0.195-0.216-0.382-0.33-0.57c-0.091-0.152-0.178-0.306-0.276-0.454c-0.088-0.131-0.185-0.255-0.278-0.383 c-0.138-0.19-0.272-0.382-0.422-0.564c0-0.001-0.001-0.001-0.002-0.002c-0.233-0.283-0.476-0.558-0.737-0.819 c-0.25-0.25-0.514-0.481-0.784-0.705c-0.014-0.011-0.026-0.024-0.039-0.035c-0.173-0.142-0.355-0.269-0.535-0.4 C25.135,10.126,25,10.02,24.856,9.925c-0.136-0.09-0.278-0.17-0.417-0.254c-0.201-0.122-0.403-0.243-0.612-0.353 c-0.109-0.057-0.222-0.107-0.333-0.161C23.249,9.038,23,8.924,22.745,8.822c-0.098-0.039-0.197-0.072-0.295-0.108 c-0.267-0.098-0.537-0.189-0.813-0.268c-0.108-0.031-0.218-0.057-0.327-0.084c-0.26-0.066-0.522-0.125-0.789-0.173 c-0.141-0.026-0.284-0.045-0.426-0.065c-0.232-0.032-0.464-0.06-0.7-0.079c-0.18-0.014-0.361-0.022-0.542-0.027 C18.735,8.014,18.619,8,18.5,8c-0.09,0-0.178,0.011-0.268,0.014c-0.088,0.002-0.175-0.006-0.264-0.002l-0.395,0.024l-0.01,0.011 C11.66,8.527,7,13.475,7,19.5C7,25.841,12.159,31,18.5,31c2.879,0,5.508-1.071,7.528-2.827c0.028-0.022,0.062-0.032,0.088-0.058 c0.016-0.016,0.021-0.037,0.036-0.054c2.125-1.901,3.542-4.571,3.799-7.574l0.019-0.016l0.02-0.44 c0.004-0.088-0.004-0.174-0.002-0.262C29.988,19.679,30,19.591,30,19.5c0-0.122-0.015-0.241-0.018-0.362 C29.976,18.96,29.969,18.784,29.955,18.607z M19,10.025c0.099,0.005,0.199,0.007,0.298,0.015c0.104,0.008,0.208,0.018,0.311,0.03 c0.227,0.027,0.451,0.061,0.673,0.103c0.067,0.013,0.134,0.024,0.201,0.038c0.272,0.058,0.541,0.126,0.804,0.207 c0.016,0.005,0.033,0.009,0.049,0.014c2.962,0.928,5.304,3.27,6.232,6.232c0.005,0.016,0.009,0.033,0.014,0.049 c0.081,0.263,0.149,0.531,0.207,0.804c0.014,0.067,0.025,0.134,0.038,0.201c0.042,0.222,0.076,0.446,0.103,0.673 c0.012,0.103,0.021,0.207,0.03,0.311c0.008,0.098,0.01,0.199,0.015,0.298H19V10.025z M9,19.5c0-4.727,3.474-8.647,8-9.37v9.833 l0.001,0.031c0,0.005,0.001,0.009,0.001,0.014L17.037,21h0.549l6.31,6.31C22.362,28.373,20.504,29,18.5,29 C13.262,29,9,24.738,9,19.5z M25.411,25.997L20.414,21h7.456C27.564,22.917,26.686,24.643,25.411,25.997z"/> <path d="M39,15h8c0.553,0,1-0.447,1-1s-0.447-1-1-1h-8c-0.553,0-1,0.447-1,1S38.447,15,39,15z"/> <path d="M51.3,13.29C51.109,13.47,51,13.729,51,14c0,0.27,0.109,0.53,0.29,0.7C51.479,14.89,51.729,15,52,15 c0.26,0,0.52-0.11,0.71-0.29C52.89,14.52,53,14.26,53,14s-0.11-0.521-0.29-0.71C52.33,12.92,51.649,12.93,51.3,13.29z"/> <path d="M49,10h3c0.553,0,1-0.447,1-1s-0.447-1-1-1h-3c-0.553,0-1,0.447-1,1S48.447,10,49,10z"/> <path d="M39,10h2c0.553,0,1-0.447,1-1s-0.447-1-1-1h-2c-0.553,0-1,0.447-1,1S38.447,10,39,10z"/> <path d="M45,10c0.27,0,0.52-0.11,0.71-0.29C45.89,9.52,46,9.27,46,9c0-0.271-0.11-0.521-0.29-0.71c-0.37-0.37-1.061-0.37-1.42,0 C44.109,8.479,44,8.729,44,9c0,0.27,0.109,0.52,0.29,0.71C44.479,9.89,44.729,10,45,10z"/> </g> <g/> <g/> <g/> <g/> <g/> <g/> <g/> <g/> <g/> <g/> <g/> <g/> <g/> <g/> <g/> </g>
</svg>