<!DOCTYPE svg PUBLIC "-//W3C//DTD SVG 1.1//EN" "http://www.w3.org/Graphics/SVG/1.1/DTD/svg11.dtd">
<!-- Uploaded to: SVG Repo, www.svgrepo.com, Transformed by: SVG Repo Mixer Tools -->
<svg height="256px" width="256px" version="1.1" id="_x32_" xmlns="http://www.w3.org/2000/svg" xmlns:xlink="http://www.w3.org/1999/xlink" viewBox="0 0 512 512" xml:space="preserve" fill="#8cb63c" stroke="#8cb63c">
<g id="SVGRepo_bgCarrier" stroke-width="0"/>
<g id="SVGRepo_tracerCarrier" stroke-linecap="round" stroke-linejoin="round"/>
<g id="SVGRepo_iconCarrier"> <style type="text/css"> .st0{fill:#8cb63c;} </style> <g> <path class="st0" d="M463.515,236.436c-4.627-49.732-26.735-94.499-60.104-127.839c-33.341-33.369-78.115-55.484-127.846-60.112V0 h-39.129v48.485c-49.717,4.627-94.491,26.742-127.831,60.112c-33.37,33.34-55.477,78.108-60.12,127.839H0v39.129h48.484 c4.643,49.732,26.75,94.498,60.12,127.838c33.34,33.362,78.114,55.477,127.831,60.112V512h39.129v-48.484 c49.731-4.636,94.505-26.75,127.846-60.112c33.369-33.34,55.477-78.107,60.104-127.838H512v-39.129H463.515z M422.953,275.565 c-4.47,38.62-21.964,73.172-48.069,99.312c-26.148,26.112-60.692,43.592-99.32,48.07v-69.339h-39.129v69.332 c-38.613-4.47-73.172-21.95-99.305-48.062c-26.119-26.14-43.599-60.692-48.069-99.312h69.332v-39.129H89.061 c4.47-38.621,21.95-73.172,48.069-99.313c26.134-26.112,60.692-43.599,99.305-48.069v69.339h39.129V89.054 c38.627,4.47,73.171,21.957,99.32,48.069c26.105,26.141,43.599,60.692,48.069,99.313h-69.346v39.129H422.953z"/> <path class="st0" d="M256.007,233.993C243.843,233.993,234,243.85,234,256c0,12.15,9.843,22.007,22.008,22.007 c12.15,0,22.007-9.858,22.007-22.007C278.014,243.85,268.157,233.993,256.007,233.993z"/> </g> </g>
</svg>